<?xml version="1.0" encoding="UTF-8"?>
<svg id="Layer_2" data-name="Layer 2" xmlns="http://www.w3.org/2000/svg" viewBox="0 0 454.1 488.91">
  <defs>
    <style>
      .cls-1 {
        fill: #2fb697;
        stroke-width: 0px;
      }
    </style>
  </defs>
  <g id="Livello_1" data-name="Livello 1">
    <g>
      <path class="cls-1" d="M88.94,437.22h115.17v51.69H0v-38.77l77.54-67.65c28.63-25.33,46.75-42.31,54.36-50.93,7.6-8.61,11.4-17.62,11.4-26.99s-3.49-17.8-10.45-24.51c-6.97-6.71-17.04-10.08-30.21-10.08-25.85,0-40.92,14.07-45.23,42.19H2.66c1.77-28.63,12.09-51.42,30.98-68.41,18.87-16.98,42.62-25.47,71.27-25.47s51.05,8.04,68.03,24.14c16.97,16.08,25.46,35.91,25.46,59.48,0,5.83-.7,11.46-2.09,16.9-1.4,5.46-2.79,10.27-4.18,14.45-1.39,4.19-4.37,9.12-8.93,14.83-4.56,5.69-8.05,10.13-10.45,13.3s-7.28,8.17-14.63,15.02c-7.35,6.84-12.67,11.72-15.96,14.63-3.3,2.91-9.88,8.68-19.77,17.29l-32.69,28.5-.77.39Z"/>
      <path class="cls-1" d="M454.1,379.83v50.56l-37.25.37v58.15h-54.36v-58.15h-131.89v-50.93l106.05-156.98h80.2v156.59l37.25.39ZM288.76,379.44h73.73v-106.03h-3.42l-70.32,106.03Z"/>
      <polygon class="cls-1" points="0 131.72 225.97 0 333.05 61.83 333.05 15.38 396.4 15.38 396.4 98.4 454.1 131.72 454.1 196.99 225.97 65.27 0 196.99 0 131.72"/>
    </g>
  </g>
</svg>