<?xml version="1.0" encoding="UTF-8"?>
<svg id="Layer_2" data-name="Layer 2" xmlns="http://www.w3.org/2000/svg" viewBox="0 0 825.41 307.49">
  <defs>
    <style>
      .cls-1 {
        fill: #2fb697;
      }

      .cls-1, .cls-2 {
        stroke-width: 0px;
      }

      .cls-2 {
        fill: #0e214e;
      }
    </style>
  </defs>
  <g id="Livello_1" data-name="Livello 1">
    <g>
      <g>
        <path class="cls-2" d="M95.16,129.97c-9.01-8.42-21.1-12.59-36.28-12.59H0v140.11h28.6v-45.29h30.27c15.09,0,27.1-4.25,36.19-12.84,9.09-8.67,13.59-20.26,13.59-34.94s-4.5-26.02-13.51-34.44ZM74.06,179.59c-3.75,3.59-9.17,5.42-16.43,5.42h-29.02v-40.45h29.02c7.26,0,12.68,1.75,16.43,5.34,3.75,3.5,5.59,8.51,5.59,14.93s-1.83,11.18-5.59,14.76Z"/>
        <path class="cls-2" d="M188.28,144.97c1.87,0,4,.13,6.4.4v29.42c-2.94-.26-5.27-.4-7-.4-10.14,0-18.31,2.64-24.52,7.91-6.21,5.27-9.31,13.98-9.31,26.12v49.04h-28.62v-110.08h28.62v19.22c6.81-14.42,18.28-21.61,34.43-21.61Z"/>
        <path class="cls-2" d="M220.5,161.39c11.08-10.94,24.62-16.41,40.63-16.41s29.59,5.47,40.73,16.41c11.14,10.94,16.71,24.62,16.71,41.03s-5.51,30.26-16.51,41.13c-11.01,10.88-24.65,16.31-40.93,16.31s-29.72-5.46-40.73-16.41c-11.01-10.94-16.51-24.62-16.51-41.03s5.53-30.09,16.61-41.03ZM281.44,180.6c-5.4-5.6-12.18-8.4-20.32-8.4s-14.91,2.8-20.32,8.4c-5.4,5.6-8.1,12.88-8.1,21.82s2.7,16.22,8.1,21.82c5.4,5.6,12.18,8.4,20.32,8.4s14.91-2.8,20.32-8.4c5.4-5.6,8.11-12.88,8.11-21.82s-2.7-16.22-8.11-21.82Z"/>
        <path class="cls-2" d="M397.34,144.97c14.28,0,26.22,5.37,35.83,16.11,9.61,10.74,14.41,24.51,14.41,41.33s-4.77,30.59-14.31,41.33c-9.54,10.74-21.51,16.11-35.92,16.11s-26.16-5.73-34.83-17.21v64.84h-28.62v-160.12h28.62v15.42c8.54-11.87,20.15-17.81,34.83-17.81ZM390.74,232.64c8.01,0,14.64-2.8,19.91-8.4,5.27-5.6,7.91-12.88,7.91-21.82s-2.6-16.22-7.81-21.82c-5.2-5.6-11.88-8.4-20.01-8.4s-14.88,2.8-20.22,8.4c-5.34,5.6-8.01,12.88-8.01,21.82s2.67,16.22,8.01,21.82c5.33,5.6,12.07,8.4,20.22,8.4Z"/>
        <path class="cls-2" d="M516.14,259.86c-14.81,0-27.15-3.43-37.03-10.31-9.87-6.87-15.81-16.3-17.81-28.32h29.02c2.4,9.88,11.27,14.81,26.62,14.81,12.41,0,18.61-3.01,18.61-9.01,0-.81-.1-1.53-.3-2.21-.2-.66-.53-1.26-1-1.8-.47-.53-.97-1.03-1.5-1.5-.53-.46-1.3-.9-2.3-1.3-1-.4-1.9-.73-2.7-1-.8-.26-1.97-.59-3.5-1-1.54-.4-2.87-.73-4-1-1.14-.26-2.7-.59-4.7-.99-2-.41-3.74-.81-5.2-1.21-16.41-3.87-27.86-8.1-34.33-12.7-6.47-4.61-9.71-11.52-9.71-20.72,0-11.48,4.37-20.45,13.11-26.92,8.74-6.47,20.45-9.7,35.13-9.7s26.09,3.17,34.23,9.5c8.14,6.34,13.21,14.91,15.21,25.72h-29.02c-2.4-7.47-9.54-11.21-21.42-11.21s-18.41,3.07-18.41,9.2c0,2.4,1.27,4.14,3.8,5.2,2.53,1.07,8.27,2.61,17.21,4.6,8.94,2,16.01,3.84,21.22,5.51,5.2,1.67,10.14,3.84,14.81,6.51,4.67,2.67,8.01,5.87,10.01,9.61,2,3.73,3.01,8.27,3.01,13.61,0,11.87-4.61,20.95-13.81,27.22-9.21,6.27-20.95,9.41-35.23,9.41Z"/>
      </g>
      <g>
        <path class="cls-1" d="M633.12,230.24h60.65v27.22h-107.48v-20.42l40.83-35.62c15.07-13.34,24.62-22.28,28.62-26.82,4-4.54,6-9.28,6-14.21s-1.84-9.37-5.51-12.91c-3.67-3.53-8.97-5.31-15.91-5.31-13.61,0-21.55,7.41-23.82,22.22h-28.82c.93-15.07,6.37-27.08,16.31-36.02,9.94-8.94,22.45-13.41,37.53-13.41s26.88,4.23,35.83,12.71c8.94,8.47,13.41,18.91,13.41,31.32,0,3.07-.37,6.03-1.1,8.9-.74,2.87-1.47,5.41-2.2,7.61-.73,2.21-2.3,4.81-4.7,7.81-2.4,3-4.24,5.33-5.51,7s-3.84,4.3-7.7,7.91c-3.87,3.6-6.67,6.17-8.4,7.7-1.74,1.53-5.2,4.57-10.41,9.11l-17.21,15.01-.4.2Z"/>
        <path class="cls-1" d="M825.41,200.01v26.62l-19.62.2v30.62h-28.62v-30.62h-69.45v-26.82l55.84-82.66h42.23v82.46l19.62.2ZM738.34,199.81h38.83v-55.84h-1.8l-37.03,55.84Z"/>
        <polygon class="cls-1" points="586.29 69.36 705.28 0 761.67 32.56 761.67 8.1 795.03 8.1 795.03 51.82 825.41 69.36 825.41 103.73 705.28 34.37 586.29 103.73 586.29 69.36"/>
      </g>
    </g>
  </g>
</svg>